<svg width="69" height="42" viewBox="0 0 69 42" fill="none" xmlns="http://www.w3.org/2000/svg">
<path d="M3.276 38.072C3.108 38.072 2.924 38.068 2.724 38.06C2.532 38.052 2.336 38.04 2.136 38.024C1.944 38.008 1.752 37.988 1.56 37.964C1.368 37.94 1.192 37.908 1.032 37.868V29.804C1.192 29.764 1.368 29.732 1.56 29.708C1.752 29.684 1.944 29.664 2.136 29.648C2.336 29.632 2.532 29.62 2.724 29.612C2.916 29.604 3.096 29.6 3.264 29.6C3.744 29.6 4.192 29.636 4.608 29.708C5.032 29.78 5.396 29.904 5.7 30.08C6.012 30.248 6.256 30.472 6.432 30.752C6.608 31.032 6.696 31.376 6.696 31.784C6.696 32.24 6.588 32.616 6.372 32.912C6.156 33.2 5.868 33.416 5.508 33.56C5.996 33.704 6.384 33.932 6.672 34.244C6.96 34.556 7.104 34.996 7.104 35.564C7.104 36.396 6.796 37.024 6.18 37.448C5.572 37.864 4.604 38.072 3.276 38.072ZM2.184 34.124V37.052C2.272 37.06 2.376 37.068 2.496 37.076C2.6 37.084 2.72 37.092 2.856 37.1C3 37.1 3.164 37.1 3.348 37.1C3.692 37.1 4.016 37.08 4.32 37.04C4.632 36.992 4.904 36.912 5.136 36.8C5.368 36.688 5.552 36.532 5.688 36.332C5.832 36.132 5.904 35.88 5.904 35.576C5.904 35.304 5.852 35.076 5.748 34.892C5.644 34.7 5.492 34.548 5.292 34.436C5.1 34.324 4.868 34.244 4.596 34.196C4.324 34.148 4.02 34.124 3.684 34.124H2.184ZM2.184 33.188H3.408C3.696 33.188 3.968 33.168 4.224 33.128C4.48 33.088 4.7 33.016 4.884 32.912C5.076 32.808 5.224 32.672 5.328 32.504C5.44 32.336 5.496 32.124 5.496 31.868C5.496 31.628 5.44 31.428 5.328 31.268C5.216 31.1 5.06 30.968 4.86 30.872C4.668 30.768 4.44 30.692 4.176 30.644C3.912 30.596 3.632 30.572 3.336 30.572C3.04 30.572 2.808 30.576 2.64 30.584C2.472 30.592 2.32 30.604 2.184 30.62V33.188ZM22.4829 38V29.684H27.5589V30.68H23.6469V33.152H27.1269V34.124H23.6469V37.004H27.8589V38H22.4829ZM45.0104 37.172C46.2264 37.172 46.8344 36.756 46.8344 35.924C46.8344 35.668 46.7784 35.452 46.6664 35.276C46.5624 35.092 46.4184 34.936 46.2344 34.808C46.0504 34.672 45.8384 34.556 45.5984 34.46C45.3664 34.364 45.1184 34.268 44.8544 34.172C44.5504 34.068 44.2624 33.952 43.9904 33.824C43.7184 33.688 43.4824 33.532 43.2824 33.356C43.0824 33.172 42.9224 32.956 42.8024 32.708C42.6904 32.46 42.6344 32.16 42.6344 31.808C42.6344 31.08 42.8824 30.512 43.3784 30.104C43.8744 29.696 44.5584 29.492 45.4304 29.492C45.9344 29.492 46.3904 29.548 46.7984 29.66C47.2144 29.764 47.5184 29.88 47.7104 30.008L47.3384 30.956C47.1704 30.852 46.9184 30.752 46.5824 30.656C46.2544 30.552 45.8704 30.5 45.4304 30.5C45.2064 30.5 44.9984 30.524 44.8064 30.572C44.6144 30.62 44.4464 30.692 44.3024 30.788C44.1584 30.884 44.0424 31.008 43.9544 31.16C43.8744 31.304 43.8344 31.476 43.8344 31.676C43.8344 31.9 43.8784 32.088 43.9664 32.24C44.0544 32.392 44.1784 32.528 44.3384 32.648C44.4984 32.76 44.6824 32.864 44.8904 32.96C45.1064 33.056 45.3424 33.152 45.5984 33.248C45.9584 33.392 46.2864 33.536 46.5824 33.68C46.8864 33.824 47.1464 33.996 47.3624 34.196C47.5864 34.396 47.7584 34.636 47.8784 34.916C47.9984 35.188 48.0584 35.52 48.0584 35.912C48.0584 36.64 47.7904 37.2 47.2544 37.592C46.7264 37.984 45.9784 38.18 45.0104 38.18C44.6824 38.18 44.3784 38.156 44.0984 38.108C43.8264 38.068 43.5824 38.02 43.3664 37.964C43.1504 37.9 42.9624 37.836 42.8024 37.772C42.6504 37.7 42.5304 37.64 42.4424 37.592L42.7904 36.632C42.9744 36.736 43.2544 36.852 43.6304 36.98C44.0064 37.108 44.4664 37.172 45.0104 37.172ZM68.7611 29.684V30.692H66.1451V38H64.9811V30.692H62.3651V29.684H68.7611Z" fill="white"/>
<path d="M11.8327 21C11.5527 20.5467 11.2194 20.06 10.8327 19.54C10.4594 19.0067 10.0461 18.48 9.59273 17.96C9.15273 17.4267 8.69273 16.92 8.21273 16.44C7.73273 15.9467 7.25273 15.5133 6.77273 15.14V21H3.65273V7.14H6.77273V12.38C7.58607 11.5267 8.3994 10.64 9.21273 9.72C10.0394 8.78667 10.8061 7.92667 11.5127 7.14H15.2127C14.2661 8.26 13.3127 9.34 12.3527 10.38C11.4061 11.42 10.4061 12.4667 9.35273 13.52C10.4594 14.44 11.5261 15.5333 12.5527 16.8C13.5927 18.0667 14.5861 19.4667 15.5327 21H11.8327ZM17.3246 21V7.14H26.6846V9.76H20.4446V12.48H25.9846V15.04H20.4446V18.38H27.1446V21H17.3246ZM34.0735 21.18C33.3135 21.18 32.5535 21.1533 31.7935 21.1C31.0468 21.06 30.2668 20.9533 29.4535 20.78V7.34C30.0935 7.22 30.7935 7.13333 31.5535 7.08C32.3135 7.01333 33.0202 6.98 33.6735 6.98C34.5535 6.98 35.3602 7.04667 36.0935 7.18C36.8402 7.3 37.4802 7.51333 38.0135 7.82C38.5468 8.12667 38.9602 8.53333 39.2535 9.04C39.5602 9.53333 39.7135 10.1467 39.7135 10.88C39.7135 11.9867 39.1802 12.86 38.1135 13.5C38.9935 13.8333 39.5935 14.2867 39.9135 14.86C40.2335 15.4333 40.3935 16.08 40.3935 16.8C40.3935 18.2533 39.8602 19.3467 38.7935 20.08C37.7402 20.8133 36.1668 21.18 34.0735 21.18ZM32.4935 14.96V18.54C32.7202 18.5667 32.9668 18.5867 33.2335 18.6C33.5002 18.6133 33.7935 18.62 34.1135 18.62C35.0468 18.62 35.8002 18.4867 36.3735 18.22C36.9468 17.9533 37.2335 17.46 37.2335 16.74C37.2335 16.1 36.9935 15.6467 36.5135 15.38C36.0335 15.1 35.3468 14.96 34.4535 14.96H32.4935ZM32.4935 12.58H34.0135C34.9735 12.58 35.6602 12.46 36.0735 12.22C36.4868 11.9667 36.6935 11.5667 36.6935 11.02C36.6935 10.46 36.4802 10.0667 36.0535 9.84C35.6268 9.61333 35.0002 9.5 34.1735 9.5C33.9068 9.5 33.6202 9.50667 33.3135 9.52C33.0068 9.52 32.7335 9.53333 32.4935 9.56V12.58ZM51.9757 21C51.829 20.52 51.6624 20.0267 51.4757 19.52C51.3024 19.0133 51.129 18.5067 50.9557 18H45.5557C45.3824 18.5067 45.2024 19.0133 45.0157 19.52C44.8424 20.0267 44.6824 20.52 44.5357 21H41.2957C41.8157 19.5067 42.309 18.1267 42.7757 16.86C43.2424 15.5933 43.6957 14.4 44.1357 13.28C44.589 12.16 45.029 11.1 45.4557 10.1C45.8957 9.08667 46.349 8.1 46.8157 7.14H49.7957C50.249 8.1 50.6957 9.08667 51.1357 10.1C51.5757 11.1 52.0157 12.16 52.4557 13.28C52.909 14.4 53.369 15.5933 53.8357 16.86C54.3024 18.1267 54.7957 19.5067 55.3157 21H51.9757ZM48.2357 10.28C48.169 10.48 48.069 10.7533 47.9357 11.1C47.8024 11.4467 47.649 11.8467 47.4757 12.3C47.3024 12.7533 47.109 13.2533 46.8957 13.8C46.6957 14.3467 46.489 14.92 46.2757 15.52H50.2157C50.0024 14.92 49.7957 14.3467 49.5957 13.8C49.3957 13.2533 49.2024 12.7533 49.0157 12.3C48.8424 11.8467 48.689 11.4467 48.5557 11.1C48.4224 10.7533 48.3157 10.48 48.2357 10.28ZM61.7298 21.18C60.9698 21.18 60.2098 21.1533 59.4498 21.1C58.7031 21.06 57.9231 20.9533 57.1098 20.78V7.34C57.7498 7.22 58.4498 7.13333 59.2098 7.08C59.9698 7.01333 60.6764 6.98 61.3298 6.98C62.2098 6.98 63.0164 7.04667 63.7498 7.18C64.4964 7.3 65.1364 7.51333 65.6698 7.82C66.2031 8.12667 66.6164 8.53333 66.9098 9.04C67.2164 9.53333 67.3698 10.1467 67.3698 10.88C67.3698 11.9867 66.8364 12.86 65.7698 13.5C66.6498 13.8333 67.2498 14.2867 67.5698 14.86C67.8898 15.4333 68.0498 16.08 68.0498 16.8C68.0498 18.2533 67.5164 19.3467 66.4498 20.08C65.3964 20.8133 63.8231 21.18 61.7298 21.18ZM60.1498 14.96V18.54C60.3764 18.5667 60.6231 18.5867 60.8898 18.6C61.1564 18.6133 61.4498 18.62 61.7698 18.62C62.7031 18.62 63.4564 18.4867 64.0298 18.22C64.6031 17.9533 64.8898 17.46 64.8898 16.74C64.8898 16.1 64.6498 15.6467 64.1698 15.38C63.6898 15.1 63.0031 14.96 62.1098 14.96H60.1498ZM60.1498 12.58H61.6698C62.6298 12.58 63.3164 12.46 63.7298 12.22C64.1431 11.9667 64.3498 11.5667 64.3498 11.02C64.3498 10.46 64.1364 10.0667 63.7098 9.84C63.2831 9.61333 62.6564 9.5 61.8298 9.5C61.5631 9.5 61.2764 9.50667 60.9698 9.52C60.6631 9.52 60.3898 9.53333 60.1498 9.56V12.58Z" fill="white"/>
</svg>
